<svg xmlns="http://www.w3.org/2000/svg" viewBox="0 0 1600 920" role="img" aria-labelledby="title desc">
  <title id="title">Polished epoxy garage floor visual</title>
  <desc id="desc">Dark premium garage with a glossy black and gold epoxy floor.</desc>
  <defs>
    <linearGradient id="floor" x1="0" y1="0" x2="1" y2="1">
      <stop offset="0" stop-color="#181818"/>
      <stop offset="0.45" stop-color="#4e4a42"/>
      <stop offset="0.72" stop-color="#111"/>
      <stop offset="1" stop-color="#9d6505"/>
    </linearGradient>
    <radialGradient id="glow" cx="62%" cy="36%" r="48%">
      <stop offset="0" stop-color="#f5af19" stop-opacity="0.42"/>
      <stop offset="1" stop-color="#f5af19" stop-opacity="0"/>
    </radialGradient>
    <filter id="blur"><feGaussianBlur stdDeviation="18"/></filter>
  </defs>
  <rect width="1600" height="920" fill="#070707"/>
  <rect y="0" width="1600" height="390" fill="#101010"/>
  <g opacity="0.35" stroke="#f5af19" stroke-width="2">
    <path d="M0 160H1600M0 240H1600M0 320H1600"/>
    <path d="M100 0v390M280 0v390M460 0v390M640 0v390M820 0v390M1000 0v390M1180 0v390M1360 0v390"/>
  </g>
  <g opacity="0.9">
    <rect x="1020" y="100" width="360" height="210" rx="10" fill="#1f1f1f" stroke="#3d3d3d"/>
    <rect x="1060" y="132" width="280" height="145" rx="4" fill="#cfc8b8"/>
    <rect x="1098" y="166" width="204" height="76" rx="4" fill="#e7e1d4" opacity="0.8"/>
  </g>
  <polygon points="0,390 1600,390 1600,920 0,920" fill="url(#floor)"/>
  <ellipse cx="960" cy="560" rx="520" ry="230" fill="url(#glow)" filter="url(#blur)"/>
  <g stroke="#f6f0df" stroke-opacity="0.24" stroke-width="3">
    <path d="M0 780 C380 680 760 690 1600 580"/>
    <path d="M0 860 C400 730 880 735 1600 650"/>
    <path d="M210 390 80 920M520 390 445 920M830 390 850 920M1120 390 1280 920M1400 390 1580 920"/>
  </g>
  <g opacity="0.85">
    <ellipse cx="560" cy="672" rx="290" ry="34" fill="#fff" opacity="0.16"/>
    <path d="M480 640c48-54 160-72 242-26 42 24 58 64 44 92-15 29-70 43-142 34-95-11-187-48-144-100z" fill="#0c0c0c" stroke="#2e2e2e" stroke-width="5"/>
    <circle cx="535" cy="724" r="34" fill="#080808" stroke="#2d2d2d" stroke-width="8"/>
    <circle cx="720" cy="724" r="34" fill="#080808" stroke="#2d2d2d" stroke-width="8"/>
    <path d="M500 635c54-42 126-52 199-22" stroke="#f5af19" stroke-width="4" opacity="0.72"/>
  </g>
  <g opacity="0.72" fill="#f5af19">
    <circle cx="180" cy="508" r="3"/><circle cx="330" cy="620" r="2"/><circle cx="760" cy="820" r="3"/><circle cx="980" cy="650" r="2"/><circle cx="1260" cy="760" r="3"/><circle cx="1420" cy="530" r="2"/>
  </g>
</svg>
